<?xml version="1.0" encoding="UTF-8"?>
<svg xmlns="http://www.w3.org/2000/svg" xmlns:xlink="http://www.w3.org/1999/xlink" width="508.1pt" height="416.4pt" viewBox="0 0 508.1 416.4" version="1.1">
<defs>
<clipPath id="clip1">
  <path d="M 296 339 L 371 339 L 371 416.398438 L 296 416.398438 Z M 296 339 "/>
</clipPath>
<clipPath id="clip2">
  <path d="M 455 339 L 508.101563 339 L 508.101563 416 L 455 416 Z M 455 339 "/>
</clipPath>
</defs>
<g id="surface1">
<path style=" stroke:none;fill-rule:evenodd;fill:rgb(10.594177%,26.268005%,57.617188%);fill-opacity:1;" d="M 194.644531 124.453125 C 187.671875 121.902344 180.796875 119.539063 174.023438 117.378906 C 172.285156 116.816406 170.558594 116.269531 168.832031 115.738281 C 167.023438 115.175781 165.226563 114.632813 163.429688 114.101563 C 163.011719 113.972656 162.59375 113.855469 162.175781 113.734375 C 139.273438 106.964844 117.515625 102.210938 97.007813 98.738281 L 73.121094 10.347656 C 120.523438 42.621094 161.550781 80.210938 194.644531 124.453125 Z M 194.644531 124.453125 "/>
<path style=" stroke:none;fill-rule:evenodd;fill:rgb(10.594177%,26.268005%,57.617188%);fill-opacity:1;" d="M 205.921875 290.191406 C 205.65625 290.074219 205.371094 289.9375 205.097656 289.816406 C 201.546875 288.1875 198.011719 286.609375 194.480469 285.089844 C 165.167969 272.507813 136.480469 264.050781 108.523438 260.394531 C 83.917969 192.140625 59.492188 131.828125 35.5625 92.984375 C 36.492188 92.949219 37.425781 92.910156 38.367188 92.886719 C 42.003906 92.800781 45.691406 92.835938 49.4375 92.976563 C 64.296875 93.5625 80.019531 95.863281 96.558594 98.664063 C 96.707031 98.6875 96.855469 98.714844 97.003906 98.738281 L 97.328125 99.894531 L 133.011719 228.566406 L 133.207031 229.269531 C 151.195313 239.785156 168.003906 252.757813 183.875 267.660156 C 184.023438 267.8125 184.164063 267.949219 184.316406 268.078125 C 191.480469 274.835938 198.449219 281.984375 205.257813 289.472656 C 205.359375 289.585938 205.464844 289.703125 205.570313 289.816406 C 205.691406 289.9375 205.792969 290.074219 205.921875 290.191406 Z M 205.921875 290.191406 "/>
<path style=" stroke:none;fill-rule:evenodd;fill:rgb(4.704285%,45.872498%,71.679688%);fill-opacity:1;" d="M 313.203125 124.871094 C 297.773438 139.925781 264.78125 197.558594 253.753906 231.738281 C 242.550781 197.558594 209.199219 140.121094 194.644531 124.453125 C 213.878906 131.492188 236.992188 140.121094 253.464844 148.355469 C 270.34375 140.121094 296.179688 131.40625 312.558594 125.121094 C 312.777344 125.035156 312.992188 124.953125 313.203125 124.871094 Z M 313.203125 124.871094 "/>
<path style=" stroke:none;fill-rule:evenodd;fill:rgb(4.704285%,45.872498%,71.679688%);fill-opacity:1;" d="M 275.675781 56.800781 C 269.769531 62.558594 257.148438 84.609375 252.929688 97.683594 C 248.644531 84.609375 235.886719 62.636719 230.320313 56.640625 C 237.679688 59.335938 246.519531 62.636719 252.824219 65.785156 C 259.277344 62.636719 269.160156 59.300781 275.425781 56.898438 C 275.511719 56.863281 275.59375 56.828125 275.675781 56.800781 Z M 275.675781 56.800781 "/>
<path style=" stroke:none;fill-rule:evenodd;fill:rgb(4.704285%,45.872498%,71.679688%);fill-opacity:1;" d="M 230.320313 40.820313 C 236.222656 35.0625 248.84375 13.011719 253.0625 -0.0664063 C 257.347656 13.011719 270.105469 34.988281 275.675781 40.980469 C 268.316406 38.289063 259.472656 34.988281 253.171875 31.828125 C 246.714844 34.988281 236.832031 38.316406 230.5625 40.726563 C 230.480469 40.757813 230.398438 40.789063 230.320313 40.820313 Z M 230.320313 40.820313 "/>
<path style=" stroke:none;fill-rule:evenodd;fill:rgb(4.704285%,45.872498%,71.679688%);fill-opacity:1;" d="M 245.007813 71.488281 C 239.246094 65.585938 217.199219 52.964844 204.121094 48.746094 C 217.199219 44.460938 239.171875 31.699219 245.164063 26.132813 C 242.472656 33.492188 239.171875 42.328125 236.019531 48.636719 C 239.171875 55.09375 242.503906 64.976563 244.910156 71.242188 C 244.945313 71.324219 244.972656 71.410156 245.007813 71.488281 Z M 245.007813 71.488281 "/>
<path style=" stroke:none;fill-rule:evenodd;fill:rgb(4.704285%,45.872498%,71.679688%);fill-opacity:1;" d="M 260.988281 26.132813 C 266.746094 32.035156 288.792969 44.65625 301.871094 48.871094 C 288.792969 53.160156 266.820313 65.921875 260.828125 71.488281 C 263.519531 64.128906 266.820313 55.289063 269.96875 48.988281 C 266.820313 42.53125 263.488281 32.644531 261.082031 26.378906 C 261.050781 26.296875 261.019531 26.210938 260.988281 26.132813 Z M 260.988281 26.132813 "/>
<path style=" stroke:none;fill-rule:evenodd;fill:rgb(10.594177%,26.268005%,57.617188%);fill-opacity:1;" d="M 435.113281 10.347656 L 411.226563 98.738281 C 395.945313 101.328125 379.980469 104.621094 363.351563 108.941406 C 363.308594 108.945313 363.257813 108.960938 363.195313 108.976563 C 347.75 112.984375 331.734375 117.871094 315.199219 123.871094 C 315.175781 123.878906 315.144531 123.886719 315.117188 123.898438 C 314.605469 124.078125 314.097656 124.265625 313.589844 124.453125 C 346.679688 80.210938 387.710938 42.621094 435.113281 10.347656 Z M 435.113281 10.347656 "/>
<path style=" stroke:none;fill-rule:evenodd;fill:rgb(10.594177%,26.268005%,57.617188%);fill-opacity:1;" d="M 472.671875 92.984375 C 455.527344 120.8125 438.128906 159.664063 420.59375 204.558594 C 413.914063 221.648438 407.21875 239.617188 400.503906 258.1875 C 400.242188 258.914063 399.980469 259.652344 399.710938 260.394531 C 387.984375 261.925781 376.128906 264.304688 364.144531 267.484375 C 364.019531 267.515625 363.882813 267.550781 363.742188 267.597656 C 357.863281 269.160156 351.945313 270.914063 346.003906 272.859375 C 345.933594 272.882813 345.863281 272.90625 345.796875 272.929688 C 338.84375 275.210938 331.847656 277.746094 324.816406 280.527344 C 319.261719 282.726563 312.746094 285.078125 307.136719 287.578125 C 307.128906 287.589844 307.125 287.589844 307.117188 287.59375 C 306.359375 287.933594 305.59375 288.269531 304.832031 288.621094 C 303.957031 289.015625 303.082031 289.414063 302.207031 289.816406 C 301.9375 289.9375 301.652344 290.074219 301.386719 290.191406 C 301.511719 290.074219 301.617188 289.9375 301.738281 289.816406 C 302.050781 289.472656 302.355469 289.128906 302.671875 288.789063 C 324.507813 264.859375 348.992188 244.492188 375.027344 229.269531 L 410.9375 99.777344 L 411.226563 98.738281 C 411.578125 98.679688 411.925781 98.617188 412.273438 98.558594 C 429.097656 95.730469 445.074219 93.414063 460.160156 92.933594 C 463.238281 92.835938 466.285156 92.816406 469.292969 92.871094 L 469.296875 92.871094 C 470.425781 92.902344 471.550781 92.941406 472.671875 92.984375 Z M 472.671875 92.984375 "/>
<path style=" stroke:none;fill-rule:evenodd;fill:rgb(4.704285%,45.872498%,71.679688%);fill-opacity:1;" d="M 279.214844 301.410156 C 278.652344 301.730469 278.0625 302.074219 277.441406 302.449219 C 277.382813 302.488281 277.3125 302.523438 277.257813 302.5625 C 268.160156 308.035156 254.195313 318.179688 253.761719 318.496094 L 253.753906 318.503906 L 253.746094 318.496094 C 253.289063 318.167969 238.628906 307.925781 228.292969 301.410156 C 233.796875 293.21875 243.148438 287.835938 253.753906 287.835938 C 264.359375 287.835938 273.710938 293.21875 279.214844 301.410156 Z M 279.214844 301.410156 "/>
<path style=" stroke:none;fill-rule:evenodd;fill:rgb(18.821716%,20.384216%,19.993591%);fill-opacity:1;" d="M 117.078125 359.964844 L 117.078125 415.5 L 102.867188 415.5 L 102.867188 360.167969 C 104.09375 362.722656 106.796875 364.496094 109.925781 364.496094 C 113.144531 364.496094 115.898438 362.632813 117.078125 359.964844 Z M 117.078125 359.964844 "/>
<path style=" stroke:none;fill-rule:evenodd;fill:rgb(18.821716%,20.384216%,19.993591%);fill-opacity:1;" d="M 115.492188 349.191406 C 114.066406 350.582031 111.023438 355.902344 110.003906 359.054688 C 108.96875 355.902344 105.890625 350.597656 104.546875 349.152344 C 106.324219 349.796875 108.457031 350.597656 109.976563 351.359375 C 111.535156 350.597656 113.921875 349.789063 115.433594 349.214844 C 115.453125 349.203125 115.472656 349.195313 115.492188 349.191406 Z M 115.492188 349.191406 "/>
<path style=" stroke:none;fill-rule:evenodd;fill:rgb(18.821716%,20.384216%,19.993591%);fill-opacity:1;" d="M 104.546875 345.335938 C 105.972656 343.941406 109.015625 338.621094 110.035156 335.46875 C 111.070313 338.621094 114.148438 343.921875 115.492188 345.371094 C 113.714844 344.722656 111.582031 343.921875 110.0625 343.164063 C 108.503906 343.921875 106.117188 344.730469 104.609375 345.308594 C 104.585938 345.320313 104.566406 345.324219 104.546875 345.335938 Z M 104.546875 345.335938 "/>
<path style=" stroke:none;fill-rule:evenodd;fill:rgb(18.821716%,20.384216%,19.993591%);fill-opacity:1;" d="M 108.089844 352.734375 C 106.699219 351.308594 101.382813 348.265625 98.226563 347.246094 C 101.382813 346.210938 106.683594 343.132813 108.128906 341.789063 C 107.480469 343.566406 106.683594 345.699219 105.925781 347.21875 C 106.683594 348.777344 107.488281 351.164063 108.066406 352.671875 C 108.078125 352.695313 108.082031 352.714844 108.089844 352.734375 Z M 108.089844 352.734375 "/>
<path style=" stroke:none;fill-rule:evenodd;fill:rgb(18.821716%,20.384216%,19.993591%);fill-opacity:1;" d="M 111.949219 341.789063 C 113.339844 343.214844 118.65625 346.257813 121.8125 347.277344 C 118.65625 348.3125 113.355469 351.390625 111.910156 352.734375 C 112.558594 350.957031 113.355469 348.824219 114.117188 347.304688 C 113.355469 345.746094 112.550781 343.359375 111.972656 341.847656 C 111.960938 341.828125 111.957031 341.808594 111.949219 341.789063 Z M 111.949219 341.789063 "/>
<path style=" stroke:none;fill-rule:evenodd;fill:rgb(18.821716%,20.384216%,19.993591%);fill-opacity:1;" d="M 114.148438 347.265625 C 114.148438 349.632813 112.230469 351.554688 109.859375 351.554688 C 107.492188 351.554688 105.570313 349.632813 105.570313 347.265625 C 105.570313 344.894531 107.492188 342.976563 109.859375 342.976563 C 112.230469 342.976563 114.148438 344.894531 114.148438 347.265625 Z M 114.148438 347.265625 "/>
<path style=" stroke:none;fill-rule:evenodd;fill:rgb(18.821716%,20.384216%,19.993591%);fill-opacity:1;" d="M 66.082031 363.21875 L 44.371094 399.644531 L 36.183594 399.644531 L 14.472656 363.121094 L 14.472656 415.585938 L 0.0976563 415.585938 L 0.0976563 339.890625 L 16.855469 339.890625 L 40.277344 383.074219 L 63.796875 339.890625 L 80.457031 339.890625 L 80.457031 415.585938 L 66.082031 415.585938 Z M 66.082031 363.21875 "/>
<path style=" stroke:none;fill-rule:evenodd;fill:rgb(18.821716%,20.384216%,19.993591%);fill-opacity:1;" d="M 154.4375 378.644531 L 172.054688 378.644531 C 174.023438 378.644531 175.75 378.214844 177.242188 377.351563 C 178.734375 376.492188 180.003906 375.410156 181.050781 374.105469 C 182.097656 372.796875 182.894531 371.332031 183.433594 369.710938 C 183.972656 368.085938 184.242188 366.507813 184.242188 364.980469 C 184.242188 363.386719 183.921875 361.792969 183.289063 360.203125 C 182.652344 358.609375 181.765625 357.171875 180.625 355.902344 C 179.480469 354.628906 178.101563 353.59375 176.480469 352.792969 C 174.863281 351.996094 173.070313 351.601563 171.101563 351.601563 L 154.4375 351.601563 Z M 203.664063 415.585938 L 185.671875 415.585938 L 169.484375 390.355469 L 154.34375 390.355469 L 154.34375 415.585938 L 139.96875 415.585938 L 139.96875 339.890625 L 173.386719 339.890625 C 177.324219 339.890625 180.910156 340.558594 184.148438 341.890625 C 187.382813 343.222656 190.144531 345.03125 192.429688 347.316406 C 194.714844 349.601563 196.492188 352.296875 197.761719 355.410156 C 199.03125 358.519531 199.667969 361.886719 199.667969 365.503906 C 199.667969 368.105469 199.300781 370.582031 198.570313 372.929688 C 197.839844 375.277344 196.808594 377.417969 195.476563 379.355469 C 194.144531 381.289063 192.554688 383.023438 190.714844 384.542969 C 188.875 386.070313 186.84375 387.308594 184.621094 388.261719 Z M 203.664063 415.585938 "/>
<path style=" stroke:none;fill-rule:evenodd;fill:rgb(18.821716%,20.384216%,19.993591%);fill-opacity:1;" d="M 241.277344 389.6875 L 264.984375 389.6875 L 253.273438 355.886719 Z M 246.609375 339.890625 L 260.128906 339.890625 L 290.027344 415.585938 L 273.839844 415.585938 L 267.746094 399.6875 L 238.800781 399.78125 L 232.707031 415.585938 L 216.519531 415.585938 Z M 246.609375 339.890625 "/>
<g clip-path="url(#clip1)" clip-rule="nonzero">
<path style=" stroke:none;fill-rule:evenodd;fill:rgb(18.821716%,20.384216%,19.993591%);fill-opacity:1;" d="M 370.484375 387.210938 C 369.65625 391.402344 368.324219 395.289063 366.480469 398.878906 C 364.644531 402.460938 362.230469 405.542969 359.246094 408.125 C 356.261719 410.707031 352.660156 412.726563 348.441406 414.175781 C 344.21875 415.625 339.28125 416.347656 333.632813 416.347656 C 328.554688 416.347656 323.777344 415.539063 319.304688 413.917969 C 314.828125 412.300781 310.890625 409.890625 307.496094 406.683594 C 304.101563 403.480469 301.417969 399.496094 299.453125 394.734375 C 297.484375 389.972656 296.5 384.453125 296.5 378.164063 C 296.5 372.835938 297.355469 367.835938 299.070313 363.167969 C 300.785156 358.503906 303.261719 354.441406 306.496094 350.980469 C 309.734375 347.523438 313.671875 344.777344 318.304688 342.746094 C 322.9375 340.714844 328.207031 339.699219 334.109375 339.699219 C 339.125 339.699219 343.710938 340.382813 347.871094 341.746094 C 352.023438 343.113281 355.644531 345.03125 358.722656 347.507813 C 361.800781 349.984375 364.339844 352.996094 366.339844 356.554688 C 368.339844 360.109375 369.6875 364.074219 370.386719 368.453125 L 356.578125 370.074219 C 356.011719 367.34375 355.136719 364.824219 353.960938 362.503906 C 352.785156 360.1875 351.328125 358.21875 349.582031 356.601563 C 347.835938 354.980469 345.789063 353.710938 343.441406 352.789063 C 341.09375 351.871094 338.457031 351.410156 335.539063 351.410156 C 331.855469 351.410156 328.570313 352.097656 325.683594 353.460938 C 322.796875 354.828125 320.367188 356.707031 318.398438 359.089844 C 316.429688 361.476563 314.9375 364.289063 313.925781 367.53125 C 312.910156 370.773438 312.398438 374.269531 312.398438 378.023438 C 312.398438 382.347656 313.019531 386.164063 314.257813 389.472656 C 315.496094 392.777344 317.164063 395.558594 319.257813 397.816406 C 321.351563 400.074219 323.792969 401.777344 326.589844 402.914063 C 329.378906 404.0625 332.363281 404.636719 335.539063 404.636719 C 338.078125 404.636719 340.488281 404.226563 342.773438 403.398438 C 345.058594 402.574219 347.109375 401.371094 348.914063 399.78125 C 350.722656 398.195313 352.28125 396.257813 353.582031 393.972656 C 354.882813 391.6875 355.851563 389.085938 356.484375 386.164063 Z M 370.484375 387.210938 "/>
</g>
<path style=" stroke:none;fill-rule:evenodd;fill:rgb(18.821716%,20.384216%,19.993591%);fill-opacity:1;" d="M 440.175781 403.589844 L 440.175781 415.585938 L 388.378906 415.585938 L 388.378906 339.890625 L 402.664063 339.890625 L 402.664063 403.589844 Z M 440.175781 403.589844 "/>
<g clip-path="url(#clip2)" clip-rule="nonzero">
<path style=" stroke:none;fill-rule:evenodd;fill:rgb(18.821716%,20.384216%,19.993591%);fill-opacity:1;" d="M 469.503906 352.167969 L 469.503906 371.785156 L 502.925781 371.785156 L 502.925781 383.496094 L 469.503906 383.496094 L 469.503906 403.304688 L 508.160156 403.304688 L 508.160156 415.585938 L 455.699219 415.585938 L 455.699219 339.890625 L 508.160156 339.890625 L 508.160156 352.167969 Z M 469.503906 352.167969 "/>
</g>
</g>
</svg>
